<svg xmlns:inkscape="http://www.inkscape.org/namespaces/inkscape" xmlns:sodipodi="http://sodipodi.sourceforge.net/DTD/sodipodi-0.dtd" xmlns="http://www.w3.org/2000/svg" xmlns:svg="http://www.w3.org/2000/svg" id="svg2" width="814.52002" height="672.38666" viewBox="0 0 814.52002 672.38666" sodipodi:docname="EBTTIKAR LOGO FULL [Converted].eps"><defs id="defs6"></defs><g id="g8" inkscape:groupmode="layer" inkscape:label="ink_ext_XXXXXX" transform="matrix(1.3333333,0,0,-1.3333333,0,672.38667)"><g id="g10" transform="scale(0.1)"><path d="M 2485.38,3473.85 2154.25,4048.54 668.531,1486.43 1004.04,915.41 l 574.73,989.38 571.36,-987.263 335.25,570.713 -573.36,992.8 573.36,992.81" style="fill:#2299b4;fill-opacity:1;fill-rule:nonzero;stroke:none" id="path12"></path><path d="m 4201.76,2481.48 665.02,0.35 -1470.7,2560.76 h -666.1 l 568.42,-990.21 -1143.6,-4.57 329.06,-570.9 1146.11,-1.73 571.79,-993.7" style="fill:#73d1e2;fill-opacity:1;fill-rule:nonzero;stroke:none" id="path14"></path><path d="M 2481.36,1492.66 2150.13,917.527 H 5112.2 l 327.69,576.423 -1148.29,0.82 573.22,987.71 -669.45,3.13 -570.38,-994.18 -1145.75,1.23" style="fill:#0d597b;fill-opacity:1;fill-rule:nonzero;stroke:none" id="path16"></path><path d="m 2481.27,1494.32 -572.98,992.67 572.98,992.56 h 1146.19 l 573.06,-992.56 -573.06,-992.67 H 2481.27" style="fill:#2299b4;fill-opacity:1;fill-rule:nonzero;stroke:none" id="path18"></path><path d="m 1908.29,2486.99 572.98,992.56 h 1146.19 l -576.61,-993.2 -1142.56,0.64" style="fill:#0d597b;fill-opacity:1;fill-rule:nonzero;stroke:none" id="path20"></path><path d="m 1908.29,2486.35 1146,-0.74 572.43,-992.95 -1145.36,0.93 -573.07,992.76" style="fill:#73d1e2;fill-opacity:1;fill-rule:nonzero;stroke:none" id="path22"></path><path d="m 1004.04,916.973 574.4,987.177 572.22,-987.06 z" style="fill:#0d597b;fill-opacity:1;fill-rule:nonzero;stroke:none" id="path24"></path><path d="m 2153.52,4048.54 576.22,994.35 573.8,-994.78 z" style="fill:#2299b4;fill-opacity:1;fill-rule:nonzero;stroke:none" id="path26"></path><path d="m 4290.16,1494.77 574.66,988.15 575.53,-988.15 z" style="fill:#73d1e2;fill-opacity:1;fill-rule:nonzero;stroke:none" id="path28"></path><path d="m 123.535,405.352 c 0,85.898 -9.972,91.25 -110.8241,95.957 v 18.328 H 565.398 c 1.133,-13.563 7.418,-71.043 13.61,-115.203 l -31.254,-2.383 c -12.688,39.394 -26.684,59.98 -45.606,72.578 -20.152,13.262 -61.683,18.867 -138.773,18.867 h -95.801 c -35.48,0 -37.871,-1.562 -37.871,-24.473 V 289.258 h 127.473 c 108.453,0 112.082,4.805 124.82,63.047 h 31.551 V 196.387 h -31.551 c -6.191,29.14 -10.023,44.804 -26.484,53.457 -16.27,8.652 -44.235,10.332 -98.336,10.332 H 229.703 V 120.645 c 0,-44.9809 7.555,-68.7114 31.488,-78.0083 24.032,-9.4726 69.493,-9.4726 128.821,-9.4726 71.89,0 131.058,3.8867 158.914,22.8515 21.375,14.0625 41.578,40.9375 60.453,77.1484 l 31.601,-2.246 C 634.734,108.711 606.918,28.3984 596.895,7.16797 H 0 V 25.293 c 113.563,4.4726 123.535,10.2734 123.535,96.133 v 283.926" style="fill:#0d597b;fill-opacity:1;fill-rule:nonzero;stroke:none" id="path30"></path><path d="m 991.715,471.582 c 0,15.625 3.832,18.77 11.405,20.352 10.04,2.285 27.77,4.668 69.34,4.668 148.96,0 180.51,-52.989 180.51,-99.903 0,-64.844 -60.49,-100.312 -181.68,-100.312 h -79.575 z m -214.41,48.055 v -18.328 c 99.711,-4.707 107.191,-10.059 108.554,-95.957 V 121.426 c 0,-85.8596 -10.175,-91.6604 -116.125,-96.133 V 7.16797 h 290.246 c 95.98,0 176.62,7.57813 241.06,29.88283 73.13,26.1328 117.2,65.5272 117.2,121.4452 0,79.512 -103.24,122.109 -218.34,132.481 v 1.425 c 60.58,9.571 165.37,43.555 165.37,112.95 0,39.101 -22.7,67.558 -65.56,86.582 -41.58,18.242 -93.67,27.703 -184.14,27.703 z M 1064.96,273.633 c 130.07,0 230.91,-39.668 230.91,-125.391 0,-83.6131 -89.83,-116.7381 -195.53,-116.7381 C 1008.13,30.7617 991.715,48.75 991.715,101.738 v 171.895 h 73.245" style="fill:#0d597b;fill-opacity:1;fill-rule:nonzero;stroke:none" id="path32"></path><path d="m 1895.49,121.426 c 0,-85.8596 10.17,-91.6604 133.62,-96.133 V 7.16797 H 1660.68 V 25.293 c 118.53,4.4726 128.7,10.2734 128.7,96.133 v 372.07 h -59.32 c -112.35,0 -146.29,-10.164 -165.17,-25.117 -13.91,-10.957 -29,-33.145 -44.38,-67.871 h -31.45 c 5.07,48.086 12.73,98.594 15.19,138.945 h 17.55 c 19.11,-18.32 31.75,-19.816 65.8,-19.816 h 517.34 c 32.73,0 39.02,4.738 59.22,19.816 h 17.69 c 1.28,-33.379 7.62,-90.859 13.84,-136.68 l -31.53,-2.265 c -12.48,37.715 -26.49,59.922 -45.37,72.402 -21.43,14.981 -60.68,20.586 -138.88,20.586 h -84.42 v -372.07" style="fill:#0d597b;fill-opacity:1;fill-rule:nonzero;stroke:none" id="path34"></path><path d="m 2743.07,121.426 c 0,-85.8596 10.08,-91.6604 133.87,-96.133 V 7.16797 H 2508.46 V 25.293 c 118.73,4.4726 128.61,10.2734 128.61,96.133 v 372.07 h -59.33 c -112.28,0 -146.28,-10.164 -165.2,-25.117 -13.81,-10.957 -29.1,-33.145 -44.09,-67.871 h -31.59 c 5.05,48.086 12.63,98.594 15.07,138.945 h 17.75 c 18.83,-18.32 31.41,-19.816 65.41,-19.816 h 517.49 c 32.92,0 39.1,4.738 59.4,19.816 h 17.65 c 1.23,-33.379 7.62,-90.859 13.96,-136.68 l -31.61,-2.265 c -12.67,37.715 -26.48,59.922 -45.5,72.402 -21.27,14.981 -60.58,20.586 -138.82,20.586 h -84.59 v -372.07" style="fill:#0d597b;fill-opacity:1;fill-rule:nonzero;stroke:none" id="path36"></path><path d="m 3399.34,121.426 c 0,-85.8596 10.13,-91.6604 113.46,-96.133 V 7.16797 H 3179.72 V 25.293 c 103.55,4.4726 113.68,10.2734 113.68,96.133 v 283.926 c 0,85.898 -10.13,91.25 -113.68,95.957 v 18.328 H 3512.8 V 501.309 C 3409.47,496.602 3399.34,491.25 3399.34,405.352 V 121.426" style="fill:#0d597b;fill-opacity:1;fill-rule:nonzero;stroke:none" id="path38"></path><path d="m 3886.37,272.051 c 61.91,31.426 237.26,147.304 301.64,196.972 21.44,16.582 17.65,26.211 -16.35,28.399 l -51.82,3.887 v 18.328 H 4424 v -18.328 c -78.19,-4.707 -109.79,-8.34 -193.13,-56.856 -45.26,-25.098 -142.59,-82.656 -242.19,-147.265 112.2,-82.735 249.69,-177.442 305.28,-213.5552 69.53,-45.0195 92.15,-54.4922 150.24,-58.3398 V 7.16797 H 4257.34 C 4196.84,48.75 3973.59,213.711 3886.37,270.449 V 121.426 c 0,-85.8596 10.06,-91.6604 118.53,-96.133 V 7.16797 H 3670.87 V 25.293 c 99.42,4.4726 109.78,10.2734 109.78,96.133 v 283.926 c 0,85.898 -10.36,91.25 -116.37,95.957 v 18.328 h 334.48 V 501.309 C 3896.43,496.602 3886.37,491.25 3886.37,405.352 V 272.051" style="fill:#0d597b;fill-opacity:1;fill-rule:nonzero;stroke:none" id="path40"></path><path d="m 4868.26,425.645 h 2.53 L 4981.91,231.66 h -223.3 z M 4999.53,7.16797 h 305.35 V 25.293 c -78.2,3.8476 -94.52,9.1992 -134.88,75.547 -49.47,80.547 -104.75,180.644 -164.23,280.566 l -89.38,150.078 -29,-7.109 -260.27,-418.828 C 4583.09,35.5664 4573,30.7617 4491.17,25.293 V 7.16797 h 269.82 V 25.293 l -37.85,2.2656 c -56.7,3.2031 -68.1,13.4375 -43.97,59.1211 17.69,33.0663 50.36,94.7073 62.95,115.1563 h 256.13 c 35.53,-56.875 71.91,-118.2032 80.8,-137.2071 12.58,-24.5312 7.51,-33.125 -39.03,-36.2305 L 4999.53,25.293 V 7.16797" style="fill:#0d597b;fill-opacity:1;fill-rule:nonzero;stroke:none" id="path42"></path><path d="m 5576.23,471.582 c 0,15.625 3.78,19.668 11.37,21.387 10.11,2.265 27.76,3.633 70.61,3.633 94.76,0 190.65,-32.989 190.65,-115.84 0,-38.77 -18.84,-77.285 -73.23,-104.141 -34.02,-17.305 -74.6,-21.172 -126.01,-21.172 h -73.39 z m 0,-238.945 h 68.23 c 39.02,0 59.36,-8.008 79.5,-28.438 35.49,-37.011 88.23,-95.488 127.4,-130.8201 C 5899.37,29.7656 5943.51,2.40234 6088.61,0 h 17.7 l 2.56,14.7461 c -45.47,7.3047 -68.11,19.7461 -94.76,39.6484 -33.96,23.6328 -60.5,44.9219 -105.95,86.6795 -37.83,34.668 -89.5,89.141 -112.24,112.696 102.26,25.996 166.54,72.734 166.54,138.203 0,45.507 -32.76,80.937 -83.31,100.996 -46.68,19.57 -118.67,26.668 -199.41,26.668 h -320.57 v -18.328 c 101.09,-4.707 111.06,-10.059 111.06,-95.957 V 121.426 c 0,-85.8596 -9.97,-91.6604 -116.01,-96.133 V 7.16797 h 335.7 V 25.293 c -103.41,4.4726 -113.69,10.2734 -113.69,96.133 v 111.211" style="fill:#0d597b;fill-opacity:1;fill-rule:nonzero;stroke:none" id="path44"></path></g></g></svg>